HIERARCHY
ROOT Hips
{
	OFFSET 0.000000 0.000000 0.000000
	CHANNELS 6 Xposition Yposition Zposition Zrotation Yrotation Xrotation 
	JOINT LHipJoint
	{
		OFFSET 0.000000 0.000000 0.000000
		CHANNELS 3 Zrotation Yrotation Xrotation
		JOINT LeftUpLeg
		{
			OFFSET 1.363060 -1.794630 0.839290
			CHANNELS 3 Zrotation Yrotation Xrotation
			JOINT LeftLeg
			{
				OFFSET 2.448110 -6.726130 0.000000
				CHANNELS 3 Zrotation Yrotation Xrotation
				JOINT LeftFoot
				{
					OFFSET 2.562200 -7.039590 0.000000
					CHANNELS 3 Zrotation Yrotation Xrotation
					JOINT LeftToeBase
					{
						OFFSET 0.157640 -0.433110 2.322550
						CHANNELS 3 Zrotation Yrotation Xrotation
						End Site
						{
							OFFSET 0.000000 0.000000 0.000000
						}
					}
				}
			}
		}
	}
	JOINT RHipJoint
	{
		OFFSET 0.000000 0.000000 0.000000
		CHANNELS 3 Zrotation Yrotation Xrotation
		JOINT RightUpLeg
		{
			OFFSET -1.305520 -1.794630 0.839290
			CHANNELS 3 Zrotation Yrotation Xrotation
			JOINT RightLeg
			{
				OFFSET -2.542530 -6.985550 0.000000
				CHANNELS 3 Zrotation Yrotation Xrotation
				JOINT RightFoot
				{
					OFFSET -2.568260 -7.056230 0.000000
					CHANNELS 3 Zrotation Yrotation Xrotation
					JOINT RightToeBase
					{
						OFFSET -0.164730 -0.452590 2.363150
						CHANNELS 3 Zrotation Yrotation Xrotation
						End Site
						{
							OFFSET 0.000000 0.000000 0.000000
						}
					}
				}
			}
		}
	}
	JOINT LowerBack
	{
		OFFSET 0.000000 0.000000 0.000000
		CHANNELS 3 Zrotation Yrotation Xrotation
		JOINT Spine
		{
			OFFSET 0.028270 2.035590 -0.193380
			CHANNELS 3 Zrotation Yrotation Xrotation
			JOINT Spine1
			{
				OFFSET 0.056720 2.048850 -0.042750
				CHANNELS 3 Zrotation Yrotation Xrotation
				JOINT Neck
				{
					OFFSET 0.000000 0.000000 0.000000
					CHANNELS 3 Zrotation Yrotation Xrotation
					JOINT Neck1
					{
						OFFSET -0.054170 1.746240 0.172020
						CHANNELS 3 Zrotation Yrotation Xrotation
						JOINT Head
						{
							OFFSET 0.104070 1.761360 -0.123970
							CHANNELS 3 Zrotation Yrotation Xrotation
							End Site
							{
								OFFSET 0.000000 0.000000 0.000000
							}
						}
					}
				}
				JOINT LeftShoulder
				{
					OFFSET 0.000000 0.000000 0.000000
					CHANNELS 3 Zrotation Yrotation Xrotation
					JOINT LeftArm
					{
						OFFSET 3.362410 1.200890 -0.311210
						CHANNELS 3 Zrotation Yrotation Xrotation
						JOINT LeftForeArm
						{
							OFFSET 4.983000 -0.000000 -0.000000
							CHANNELS 3 Zrotation Yrotation Xrotation
							JOINT LeftHand
							{
								OFFSET 3.483560 -0.000000 -0.000000
								CHANNELS 3 Zrotation Yrotation Xrotation
								JOINT LeftFingerBase
								{
									OFFSET 0.000000 0.000000 0.000000
									CHANNELS 3 Zrotation Yrotation Xrotation
									JOINT LeftHandIndex1
									{
										OFFSET 0.715260 -0.000000 -0.000000
										CHANNELS 3 Zrotation Yrotation Xrotation
										End Site
										{
											OFFSET 0.000000 0.000000 0.000000
										}
									}
								}
								JOINT LThumb
								{
									OFFSET 0.000000 0.000000 0.000000
									CHANNELS 3 Zrotation Yrotation Xrotation
									End Site
									{
										OFFSET 0.000000 0.000000 0.000000
									}
								}
							}
						}
					}
				}
				JOINT RightShoulder
				{
					OFFSET 0.000000 0.000000 0.000000
					CHANNELS 3 Zrotation Yrotation Xrotation
					JOINT RightArm
					{
						OFFSET -3.136600 1.374050 -0.404650
						CHANNELS 3 Zrotation Yrotation Xrotation
						JOINT RightForeArm
						{
							OFFSET -5.241900 -0.000000 -0.000000
							CHANNELS 3 Zrotation Yrotation Xrotation
							JOINT RightHand
							{
								OFFSET -3.444170 -0.000000 -0.000000
								CHANNELS 3 Zrotation Yrotation Xrotation
								JOINT RightFingerBase
								{
									OFFSET 0.000000 0.000000 0.000000
									CHANNELS 3 Zrotation Yrotation Xrotation
									JOINT RightHandIndex1
									{
										OFFSET -0.622530 -0.000000 -0.000000
										CHANNELS 3 Zrotation Yrotation Xrotation
										End Site
										{
											OFFSET 0.000000 0.000000 0.000000
										}
									}
								}
								JOINT RThumb
								{
									OFFSET 0.000000 0.000000 0.000000
									CHANNELS 3 Zrotation Yrotation Xrotation
									End Site
									{
										OFFSET 0.000000 0.000000 0.000000
									}
								}
							}
						}
					}
				}
			}
		}
	}
}
MOTION
Frames: 8
Frame Time: 0.008333
2.272577 16.421302 3.956499 -144.903358 -87.495160 153.904370 -9.520370 0.814593 3.135173 -9.494316 3.977139 -39.340992 -2.370598 0.052586 11.855558 0.334744 2.943451 9.792009 1.316899 -0.000000 -39.258099 10.247835 -2.930258 -0.864685 6.525870 -9.709844 -3.051880 2.202476 -1.509575 30.922203 0.024162 4.736216 -13.891050 -0.254799 0.000000 -80.289300 -1.415228 0.571287 -3.446874 -1.431679 0.477238 -3.766439 -7.613598 0.462196 -0.333127 11.795607 -5.314690 -6.547578 -3.849530 -0.306170 0.273422 0.000000 0.000000 0.000000 -4.062157 16.013257 1.889491 -67.183292 15.391720 7.066643 -1.862738 -56.900863 -0.007588 1.678455 9.189220 0.140302 -0.057646 -0.028520 -0.000000 0.000000 0.000000 0.000000 0.000000 0.000000 0.000000 18.018511 2.598607 -1.104390 64.903398 33.590043 17.201138 0.509059 76.384026 -0.025246 -3.847130 7.800436 -0.280862 0.038972 -0.499464 0.000000 0.000000 0.000000 0.000000 0.000000 0.000000 0.000000 
2.138751 16.430226 3.969811 169.270917 -88.405528 -160.230199 -10.312623 0.541117 3.194161 -10.487387 3.500012 -39.286482 -2.326198 0.134920 12.780623 0.358307 3.061551 9.673682 1.329600 0.000000 -38.405700 9.623239 -3.241068 -0.999236 5.156924 -10.492914 -4.550412 2.018157 -1.925750 33.991584 0.144941 5.124010 -12.272820 -0.259500 -0.000000 -83.208799 -3.186262 0.240567 -3.493347 -1.732147 0.298864 -3.779842 -7.594810 0.267898 -0.406108 11.978936 -5.413804 -6.447067 -3.847466 -0.306675 0.296152 0.000000 0.000000 0.000000 -3.572627 15.565000 1.925471 -67.068358 15.172029 7.268480 -1.788427 -58.354028 -0.007850 1.969408 9.052939 0.161552 -0.060403 -0.022430 -0.000000 0.000000 0.000000 0.000000 0.000000 0.000000 0.000000 18.124991 2.377526 -1.184318 65.355989 33.427739 17.030687 0.476640 77.696045 -0.027797 -4.080842 7.850591 -0.300239 0.040756 -0.511732 0.000000 0.000000 0.000000 0.000000 0.000000 0.000000 0.000000 
2.009445 16.440558 3.984126 122.471230 -89.977574 -113.369479 -9.777657 0.343481 3.038855 -10.970841 3.036457 -39.158643 -2.367728 0.040276 13.896017 0.260533 2.963114 9.335196 1.337300 -0.000000 -37.533500 10.510241 -3.721100 -0.917363 4.557915 -11.342947 -6.279857 1.889348 -2.445652 36.963005 0.243292 5.389138 -10.314695 -0.209601 -0.000000 -85.699800 -3.027955 -0.205830 -3.450837 -1.713616 -0.151720 -3.757785 -7.647326 -0.157122 -0.458042 12.105112 -5.506031 -6.353189 -3.852954 -0.307986 0.317754 0.000000 0.000000 0.000000 -3.122670 14.969545 1.974775 -66.995411 14.887697 7.476962 -1.705948 -59.828943 -0.008036 2.234035 8.923681 0.179908 -0.061578 -0.013311 -0.000000 0.000000 0.000000 0.000000 0.000000 0.000000 0.000000 18.135045 2.081537 -1.298921 65.752591 33.242852 16.839007 0.436349 79.031607 -0.030443 -4.303137 7.908816 -0.319178 0.041345 -0.521625 0.000000 0.000000 0.000000 0.000000 0.000000 0.000000 0.000000 
1.884924 16.451866 3.999985 107.979907 -89.988050 -98.793088 -9.420187 0.555577 3.046765 -11.387015 2.844952 -39.185812 -2.412429 0.083011 14.763267 0.278176 3.048130 8.660261 1.331299 0.000000 -36.671800 11.056909 -3.641693 -0.912081 3.850278 -11.718987 -8.008113 1.517065 -2.706197 40.218426 0.320690 5.725392 -8.127805 -0.095100 -0.000000 -87.574900 -3.165351 -0.250339 -3.482657 -1.757112 -0.186515 -3.781273 -7.700434 -0.183830 -0.548311 12.209301 -5.566782 -6.254678 -3.852500 -0.308721 0.343409 0.000000 0.000000 0.000000 -2.717245 14.577789 1.961047 -66.929877 14.600354 7.669671 -1.604652 -61.394929 -0.008114 2.473824 8.799468 0.195751 -0.061683 -0.005441 -0.000000 0.000000 0.000000 0.000000 0.000000 0.000000 0.000000 18.094502 2.017325 -1.350556 66.173914 33.133969 16.704440 0.407970 80.303528 -0.032740 -4.511109 7.975690 -0.337947 0.044379 -0.534084 0.000000 0.000000 0.000000 0.000000 0.000000 0.000000 0.000000 
1.765460 16.463775 4.016311 104.329070 -89.741108 -95.009946 -9.256929 0.688224 3.064842 -11.843138 2.658673 -39.188291 -2.450494 0.118354 15.512984 0.309792 3.179388 7.845733 1.322900 -0.000000 -35.864500 11.380832 -3.563827 -0.901263 3.134400 -11.931544 -9.858786 1.136092 -2.957238 43.512290 0.358335 5.988310 -5.853970 0.077900 0.000000 -88.740200 -3.511295 -0.307212 -3.531992 -1.830452 -0.215351 -3.808718 -7.734417 -0.208885 -0.648658 12.286343 -5.600518 -6.150018 -3.849966 -0.309314 0.370209 0.000000 0.000000 0.000000 -2.312566 14.162506 1.953302 -66.871144 14.277256 7.875513 -1.500747 -63.022249 -0.008334 2.692058 8.682143 0.209598 -0.062057 0.003118 -0.000000 0.000000 0.000000 0.000000 0.000000 0.000000 0.000000 18.012239 1.977088 -1.397474 66.608801 33.058486 16.589325 0.381366 81.540531 -0.035105 -4.711306 8.057811 -0.357010 0.047174 -0.547097 0.000000 0.000000 0.000000 0.000000 0.000000 0.000000 0.000000 
1.650898 16.476150 4.033148 104.957126 -89.440558 -95.463314 -9.167473 0.767486 3.075473 -12.283765 2.511926 -39.183853 -2.487495 0.139299 16.168979 0.344329 3.317607 6.956920 1.307100 0.000000 -35.138700 11.612581 -3.486072 -0.866887 2.495061 -11.972854 -11.799810 0.760913 -3.194474 46.768200 0.351294 6.117176 -3.605714 0.290700 0.000001 -89.220900 -3.881144 -0.373649 -3.594891 -1.902610 -0.250774 -3.838139 -7.757484 -0.241598 -0.755156 12.334143 -5.607669 -6.040722 -3.847065 -0.309907 0.398003 0.000000 0.000000 0.000000 -1.915337 13.730348 1.949451 -66.817278 13.913728 8.090513 -1.393869 -64.706734 -0.008678 2.893734 8.571350 0.221846 -0.062597 0.012510 -0.000000 0.000000 0.000000 0.000000 0.000000 0.000000 0.000000 17.890026 1.959438 -1.441724 67.045771 33.024834 16.500055 0.355894 82.740595 -0.037539 -4.905418 8.158052 -0.376775 0.049739 -0.560490 -0.000000 0.000000 0.000000 0.000000 0.000000 0.000000 0.000000 
1.541315 16.488980 4.050862 107.824831 -89.145172 -98.126615 -9.129350 0.808302 3.071430 -12.677719 2.451645 -39.193230 -2.522535 0.151225 16.754305 0.376783 3.422863 6.044274 1.275300 -0.000001 -34.517100 11.773086 -3.400960 -0.807482 1.976407 -11.834684 -13.782814 0.400984 -3.410104 49.923888 0.300188 6.047684 -1.505349 0.507800 0.000000 -89.115101 -4.210157 -0.439708 -3.665123 -1.962218 -0.288203 -3.868844 -7.772225 -0.276840 -0.867965 12.349851 -5.585355 -5.925519 -3.844885 -0.310592 0.427375 0.000000 0.000000 0.000000 -1.537664 13.289351 1.947202 -66.763590 13.513292 8.304644 -1.283895 -66.447525 -0.009143 3.083068 8.466170 0.232999 -0.063287 0.022714 -0.000000 0.000000 0.000000 0.000000 0.000000 0.000000 0.000000 17.728667 1.971085 -1.483207 67.476191 33.037523 16.440112 0.331071 83.900749 -0.040032 -5.093238 8.277368 -0.397241 0.052079 -0.574210 -0.000000 0.000000 0.000000 0.000000 0.000000 0.000000 0.000000 
1.436291 16.502367 4.068775 111.877551 -88.850738 -101.954928 -9.122698 0.828622 3.057464 -13.031886 2.463048 -39.203588 -2.556596 0.155803 17.246207 0.408100 3.512026 5.172471 1.237201 -0.000000 -34.020700 11.883652 -3.298213 -0.728657 1.550034 -11.554562 -15.779811 0.062550 -3.600453 52.943452 0.212125 5.746755 0.330478 0.686500 -0.000000 -88.564200 -4.501812 -0.502238 -3.742100 -2.010880 -0.324441 -3.900123 -7.780561 -0.311206 -0.982876 12.341916 -5.541237 -5.806240 -3.844716 -0.311443 0.457767 0.000000 0.000000 0.000000 -1.166547 12.852939 1.944412 -66.707058 13.069180 8.517814 -1.171832 -68.230993 -0.009741 3.266497 8.363975 0.243356 -0.064191 0.033705 -0.000000 0.000000 0.000000 0.000000 0.000000 0.000000 0.000000 17.546787 2.006005 -1.521287 67.898824 33.107132 16.421005 0.307539 85.015444 -0.042579 -5.277492 8.415105 -0.418806 0.054368 -0.588211 -0.000000 0.000000 0.000000 0.000000 0.000000 0.000000 0.000000 
